<?xml version="1.0" encoding="utf-8"?>
<!-- Generated by IcoMoon.io -->
<!DOCTYPE svg PUBLIC "-//W3C//DTD SVG 1.1//EN" "http://www.w3.org/Graphics/SVG/1.1/DTD/svg11.dtd">
<svg version="1.1" xmlns="http://www.w3.org/2000/svg" xmlns:xlink="http://www.w3.org/1999/xlink" width="32" height="32" viewBox="0 0 32 32">
<path fill="#FF0000" d="M21.333 6.4c1.32 0 2.4-1.073 2.4-2.4s-1.080-2.4-2.4-2.4c-1.327 0-2.4 1.073-2.4 2.4s1.073 2.4 2.4 2.4zM25.333 16c-3.68 0-6.667 2.987-6.667 6.667s2.987 6.667 6.667 6.667 6.667-2.987 6.667-6.667-2.987-6.667-6.667-6.667zM25.333 27.333c-2.58 0-4.667-2.087-4.667-4.667s2.087-4.667 4.667-4.667 4.667 2.087 4.667 4.667-2.087 4.667-4.667 4.667zM19.733 13.333h5.6v-2.4h-4.267l-2.58-4.353c-0.393-0.667-1.12-1.113-1.953-1.113-0.627 0-1.193 0.253-1.6 0.667l-4.933 4.927c-0.413 0.413-0.667 0.98-0.667 1.607 0 0.84 0.447 1.547 1.133 1.96l4.467 2.707v6.667h2.4v-8.64l-3-2.227 3.093-3.107 2.307 3.307zM6.667 16c-3.68 0-6.667 2.987-6.667 6.667s2.987 6.667 6.667 6.667 6.667-2.987 6.667-6.667-2.987-6.667-6.667-6.667zM6.667 27.333c-2.58 0-4.667-2.087-4.667-4.667s2.087-4.667 4.667-4.667 4.667 2.087 4.667 4.667-2.087 4.667-4.667 4.667z"></path>
</svg>
